<?xml version="1.0" encoding="UTF-8"?>
<svg version="1.1" xmlns="http://www.w3.org/2000/svg" width="546" height="445">
<path d="M0 0 C180.18 0 360.36 0 546 0 C546 146.85 546 293.7 546 445 C365.82 445 185.64 445 0 445 C0 298.15 0 151.3 0 0 Z " fill="#F5F1F5" transform="translate(0,0)"/>
<path d="M0 0 C57.3684497 1.61601267 108.12312951 22.27226263 148.17578125 63.828125 C172.49852282 89.85890707 189.11716397 123.17231612 196 158 C196.16371094 158.78213867 196.32742188 159.56427734 196.49609375 160.37011719 C206.30282534 208.28937382 193.68955912 258.81982066 167.43359375 299.38671875 C164.25087931 304.18253876 160.73277651 308.62222167 157 313 C156.12377543 314.05888369 155.24885511 315.11884754 154.375 316.1796875 C138.42004049 335.4458954 119.14615841 351.31191479 97 363 C96.36980957 363.33628418 95.73961914 363.67256836 95.09033203 364.01904297 C68.60849885 378.05434863 38.02489883 387.40712255 7.875 387.0625 C5.27625 387.041875 2.6775 387.02125 0 387 C0 378.75 0 370.5 0 362 C-2.784375 362.0309375 -2.784375 362.0309375 -5.625 362.0625 C-8.08338638 362.04933947 -10.5417418 362.0283447 -13 362 C-14.02351562 361.99613281 -15.04703125 361.99226563 -16.1015625 361.98828125 C-32.69990577 361.39107039 -49.81833811 356.58098946 -65 350 C-66.58320101 349.41630762 -68.16653221 348.83296824 -69.75 348.25 C-82.89635071 342.91463039 -94.76395753 335.59661913 -106 327 C-106.68022217 326.4942041 -107.36044434 325.9884082 -108.0612793 325.46728516 C-123.48224315 313.81678998 -136.83603648 299.42503078 -147 283 C-147.38575195 282.37899414 -147.77150391 281.75798828 -148.16894531 281.11816406 C-155.01939856 269.93167851 -160.35544523 258.31429604 -164.625 245.9375 C-164.902229 245.15431396 -165.17945801 244.37112793 -165.46508789 243.56420898 C-170.84581541 227.40608353 -172.73197167 211.26414696 -172.5625 194.3125 C-172.55857239 193.40267365 -172.55464478 192.49284729 -172.55059814 191.55545044 C-172.45973281 176.56283485 -171.25801032 162.4575611 -167 148 C-166.77006348 147.20464844 -166.54012695 146.40929687 -166.30322266 145.58984375 C-163.08473132 134.82053939 -158.30450598 124.87954707 -153 115 C-152.68305176 114.39559082 -152.36610352 113.79118164 -152.03955078 113.16845703 C-135.80920441 82.3316403 -108.61577771 58.80567684 -78 43 C-76.89011719 42.42378906 -75.78023438 41.84757812 -74.63671875 41.25390625 C-61.58649136 34.86974164 -47.21379914 30.83143409 -33 28 C-32.10152344 27.80664062 -31.20304688 27.61328125 -30.27734375 27.4140625 C-20.2871053 25.47502888 -10.14365649 25.39014063 0 25 C0 16.75 0 8.5 0 0 Z " fill="#F5F1F5" transform="translate(270,27)"/>
<path d="M0 0 C1.1679029 -0.00424107 1.1679029 -0.00424107 2.3593998 -0.00856781 C6.47064163 -0.02346954 10.58184911 -0.03275892 14.69311523 -0.03710938 C18.92643275 -0.04261633 23.15943227 -0.06671646 27.39264965 -0.09508133 C30.66381251 -0.11372637 33.93489849 -0.11891405 37.20611 -0.12044525 C38.76696851 -0.12346229 40.32782597 -0.13145865 41.88863182 -0.14463043 C44.07077721 -0.1617494 46.25214028 -0.15979825 48.43432617 -0.15332031 C49.67292892 -0.15696594 50.91153168 -0.16061157 52.18766785 -0.16436768 C56.57075372 0.3101696 60.08611606 1.59388291 63.12890625 4.8671875 C63.5259375 5.51429688 63.92296875 6.16140625 64.33203125 6.828125 C64.82960937 7.62863281 65.3271875 8.42914063 65.83984375 9.25390625 C66.41476563 10.22714844 66.9896875 11.20039063 67.58203125 12.203125 C67.92717773 12.78368652 68.27232422 13.36424805 68.62792969 13.96240234 C70.70754892 17.4633634 72.7684144 20.97491766 74.8203125 24.4921875 C78.12484213 30.14663111 81.50313102 35.75613663 84.88671875 41.36352539 C87.68410472 46.00860637 90.44411055 50.67237085 93.1640625 55.36328125 C94.05097778 56.88659058 94.05097778 56.88659058 94.95581055 58.44067383 C96.1079694 60.42261836 97.25414306 62.40805644 98.39379883 64.3972168 C98.91224365 65.28707275 99.43068848 66.17692871 99.96484375 67.09375 C100.42262207 67.88813477 100.88040039 68.68251953 101.35205078 69.50097656 C101.75794434 70.06268555 102.16383789 70.62439453 102.58203125 71.203125 C103.24203125 71.203125 103.90203125 71.203125 104.58203125 71.203125 C105.93493189 69.02580053 107.26362566 66.83871 108.58203125 64.640625 C108.96359375 64.03154297 109.34515625 63.42246094 109.73828125 62.79492188 C112.32444084 58.43077758 113.48807887 55.37292613 112.58203125 50.203125 C110.67143451 46.00020208 108.33954951 42.09084201 105.95703125 38.140625 C105.28857178 37.00625 104.6201123 35.871875 103.93139648 34.703125 C98.7634572 25.9664705 93.35521664 17.3782042 87.80029297 8.88256836 C87.24486816 8.02928955 86.68944336 7.17601074 86.1171875 6.296875 C85.38060913 5.17829102 85.38060913 5.17829102 84.62915039 4.03710938 C83.58203125 2.203125 83.58203125 2.203125 83.58203125 0.203125 C88.1901222 0.10396886 92.79758717 0.03152318 97.40649414 -0.01660156 C98.97301048 -0.03667058 100.53945234 -0.06393251 102.10571289 -0.09863281 C104.36232919 -0.14736254 106.61795208 -0.1698897 108.875 -0.1875 C109.57102829 -0.20814514 110.26705658 -0.22879028 110.98417664 -0.25006104 C114.47581641 -0.25165864 116.42955205 0.10663838 119.40429688 1.98901367 C121.33552451 3.95250061 122.75724601 5.65140377 124.1328125 8.01953125 C124.57560547 8.76976562 125.01839844 9.52 125.47460938 10.29296875 C125.94318359 11.10894531 126.41175781 11.92492187 126.89453125 12.765625 C127.40306641 13.631875 127.91160156 14.498125 128.43554688 15.390625 C129.55401359 17.29616088 130.66857792 19.2039912 131.77978516 21.11376953 C134.67865535 26.0829247 137.61947388 31.02715003 140.55593872 35.97415161 C142.25601105 38.83878587 143.95411283 41.70458619 145.65234375 44.5703125 C146.31008789 45.67987305 146.96783203 46.78943359 147.64550781 47.93261719 C148.90967897 50.0676193 150.17212788 52.2036424 151.43261719 54.34082031 C153.10289605 57.17263086 154.779251 60.00075458 156.45703125 62.828125 C157.19759766 64.08979492 157.19759766 64.08979492 157.953125 65.37695312 C158.40558594 66.13685547 158.85804688 66.89675781 159.32421875 67.6796875 C159.71464355 68.34049316 160.10506836 69.00129883 160.50732422 69.68212891 C161.51946448 71.36867781 161.51946448 71.36867781 163.58203125 72.203125 C163.84290527 71.49567139 164.1037793 70.78821777 164.37255859 70.05932617 C165.66330037 67.01120587 167.20728578 64.32799401 168.93359375 61.50390625 C169.95211426 59.8319519 169.95211426 59.8319519 170.99121094 58.1262207 C171.72974868 56.92264644 172.46835714 55.71911557 173.20703125 54.515625 C173.9667814 53.27126672 174.72621714 52.02671643 175.48535156 50.78198242 C179.33611852 44.47415325 183.20944753 38.18025934 187.08984375 31.890625 C187.44942169 31.30750046 187.80899963 30.72437592 188.17947388 30.12358093 C189.88796741 27.35349847 191.59912063 24.58513165 193.31494141 21.81958008 C196.4933185 16.67983913 199.55438852 11.55650869 202.25488281 6.1472168 C204.09176887 3.45642878 205.80913967 1.93842153 208.58203125 0.203125 C211.29828494 -0.13979442 213.58845535 -0.26760366 216.2890625 -0.1875 C217.01445724 -0.18184021 217.73985199 -0.17618042 218.48722839 -0.17034912 C220.79035133 -0.14806599 223.09188349 -0.09788987 225.39453125 -0.046875 C226.96156597 -0.02679934 228.52862524 -0.00855043 230.09570312 0.0078125 C233.92508644 0.05177163 237.75328971 0.12073877 241.58203125 0.203125 C240.2818742 3.6659954 238.76759815 6.75027646 236.8359375 9.90234375 C236.30371582 10.7742334 235.77149414 11.64612305 235.22314453 12.54443359 C234.68157715 13.42180176 234.14000977 14.29916992 233.58203125 15.203125 C233.08815918 16.0070166 232.59428711 16.8109082 232.08544922 17.63916016 C230.56866703 20.10123432 229.04504692 22.55895348 227.51953125 25.015625 C226.36975422 26.86976845 225.22001571 28.72393578 224.0703125 30.578125 C223.48975098 31.51398438 222.90918945 32.44984375 222.31103516 33.4140625 C220.66356194 36.07160755 219.0186798 38.73073243 217.375 41.390625 C209.74997899 53.7283326 202.08464888 66.0404739 194.38232422 78.33007812 C193.20858586 80.20322065 192.03569312 82.07689341 190.86376953 83.95117188 C187.46421499 89.38644195 184.04143381 94.80574682 180.58203125 100.203125 C179.90527344 101.2653125 179.22851562 102.3275 178.53125 103.421875 C175.3132585 108.27383558 172.12514217 112.91931739 166.58203125 115.203125 C161.94789592 116.10398143 158.63535371 115.71945954 154.39453125 113.640625 C147.01422699 107.24436131 142.54008198 99.36406474 137.73046875 90.97070312 C137.22257813 90.09994141 136.7146875 89.22917969 136.19140625 88.33203125 C135.51029785 87.14202515 135.51029785 87.14202515 134.81542969 85.92797852 C134.4084082 85.35877686 134.00138672 84.7895752 133.58203125 84.203125 C132.92203125 84.203125 132.26203125 84.203125 131.58203125 84.203125 C129.97847476 86.5917876 128.48674601 88.98236315 127.01953125 91.453125 C114.56233991 111.86471651 114.56233991 111.86471651 107.58203125 115.203125 C105.3359375 115.63671875 105.3359375 115.63671875 103.14453125 115.640625 C102.42394531 115.65996094 101.70335937 115.67929687 100.9609375 115.69921875 C95.66603311 114.59502686 92.22282869 111.25283675 89.31347656 106.84179688 C88.94834961 106.25978516 88.58322266 105.67777344 88.20703125 105.078125 C87.79549805 104.44197266 87.38396484 103.80582031 86.95996094 103.15039062 C85.48167991 100.84610541 84.02955725 98.52685575 82.58203125 96.203125 C81.99067383 95.25469727 81.39931641 94.30626953 80.79003906 93.32910156 C74.11557367 82.59221347 67.54389735 71.79256511 60.97729492 60.98950195 C58.70453864 57.25172529 56.42738067 53.51663913 54.14990234 49.78173828 C52.64738416 47.31060825 51.15532196 44.83340314 49.6640625 42.35546875 C48.78304407 40.90855448 47.90156603 39.46191993 47.01953125 38.015625 C46.63812988 37.37415527 46.25672852 36.73268555 45.86376953 36.07177734 C43.49648317 32.2203319 41.47729753 29.51723586 37.58203125 27.203125 C33.68413525 26.61349982 29.82240842 26.66680049 25.88671875 26.70703125 C24.74349152 26.70557602 23.60026428 26.70412079 22.4223938 26.70262146 C20.00324965 26.70428034 17.58409494 26.71584026 15.16503906 26.73657227 C11.491071 26.76535829 7.81856205 26.75721283 4.14453125 26.74414062 C1.78775349 26.75038376 -0.56901975 26.75877917 -2.92578125 26.76953125 C-4.01263214 26.76659561 -5.09948303 26.76365997 -6.2192688 26.76063538 C-17.61784728 26.89910613 -27.21145062 28.93055843 -35.41796875 37.203125 C-41.38268469 44.62620669 -43.34040091 52.79711222 -42.41796875 62.203125 C-41.27185078 67.6746608 -39.79836209 71.75274722 -36.41796875 76.203125 C-36.41796875 76.863125 -36.41796875 77.523125 -36.41796875 78.203125 C-35.84304687 78.4815625 -35.268125 78.76 -34.67578125 79.046875 C-32.41796875 80.203125 -32.41796875 80.203125 -30.41015625 81.421875 C-29.71148437 81.8446875 -29.0128125 82.2675 -28.29296875 82.703125 C-27.60976562 83.1259375 -26.9265625 83.54875 -26.22265625 83.984375 C-17.8496204 87.62279726 -8.89638924 87.47642905 0.07982826 87.44695473 C2.30431104 87.44128779 4.52828664 87.45063513 6.75273132 87.4641571 C13.06898653 87.50100444 19.38505584 87.51977971 25.70141602 87.50854492 C29.58412176 87.50268957 33.4660971 87.52095692 37.34865379 87.55443382 C38.82098537 87.56236816 40.29339696 87.56113744 41.76571083 87.55040932 C43.82158691 87.53605472 45.87515898 87.55236897 47.9309082 87.57543945 C49.09765579 87.57606888 50.26440338 87.5766983 51.46650696 87.5773468 C56.26577233 88.54131798 58.39294219 91.5535653 61.15942383 95.39135742 C61.81140747 96.4641394 61.81140747 96.4641394 62.4765625 97.55859375 C62.95673828 98.34556641 63.43691406 99.13253906 63.93164062 99.94335938 C64.65577148 101.15475586 64.65577148 101.15475586 65.39453125 102.390625 C65.89662109 103.20982422 66.39871094 104.02902344 66.91601562 104.87304688 C70.58203125 110.93319515 70.58203125 110.93319515 70.58203125 113.203125 C67.15783351 114.24496583 64.01990422 114.32991689 60.45019531 114.33251953 C59.20659241 114.33567169 57.9629895 114.33882385 56.68170166 114.34207153 C55.32035284 114.34027764 53.95900433 114.33822569 52.59765625 114.3359375 C51.18113183 114.33661275 49.76460752 114.33758462 48.3480835 114.33883667 C45.36550808 114.34031281 42.38296256 114.33816814 39.40039062 114.33349609 C35.65337343 114.32790144 31.90642877 114.33111608 28.15941429 114.33692455 C14.39719996 114.35516598 0.64094269 114.32061167 -13.11328125 113.79296875 C-14.06644226 113.75893951 -15.01960327 113.72491028 -16.00164795 113.68984985 C-30.87800465 113.02362019 -45.62990077 106.66984402 -56.546875 96.36328125 C-65.72588898 85.766215 -71.82379383 73.35998832 -72.41796875 59.203125 C-72.45792969 58.47609375 -72.49789062 57.7490625 -72.5390625 57 C-72.95720367 42.93077958 -67.97075876 29.52942027 -58.41796875 19.203125 C-42.12961217 2.14825752 -22.30393757 0.0548925 0 0 Z " fill="#211D1E" transform="translate(185.41796875,162.796875)"/>
<path d="M0 0 C0 8.25 0 16.5 0 25 C-1.77503906 25.18175781 -3.55007813 25.36351563 -5.37890625 25.55078125 C-40.77557793 29.26281048 -75.49379398 37.44762182 -104 60 C-104.8146875 60.62390625 -105.629375 61.2478125 -106.46875 61.890625 C-126.10372802 77.17608257 -141.30336195 95.05643166 -153 117 C-153.34305176 117.63695801 -153.68610352 118.27391602 -154.03955078 118.93017578 C-159.05527521 128.315853 -163.21270078 137.69199458 -166 148 C-166.34272949 149.19641113 -166.34272949 149.19641113 -166.69238281 150.41699219 C-174.32674801 177.98955068 -174.55731118 211.66822136 -166 239 C-165.71592285 239.92570801 -165.4318457 240.85141602 -165.13916016 241.80517578 C-157.45157705 266.16793916 -144.88231884 288.64489824 -127 307 C-125.90223234 308.17177064 -124.80458577 309.34365472 -123.70703125 310.515625 C-110.07976492 324.83782323 -94.46688528 334.91938171 -77 344 C-76.30632324 344.36222656 -75.61264648 344.72445313 -74.89794922 345.09765625 C-71.0831495 347.05239172 -67.3482256 348.70338625 -63.25 350 C-57.13355655 351.95238095 -57.13355655 351.95238095 -54.1953125 353 C-36.27510977 359.3539777 -18.9181697 360.85344426 0 362 C0 370.25 0 378.5 0 387 C-15.32319397 387.42564428 -30.03576482 386.62685612 -45 383 C-45.33 382.67 -45.66 382.34 -46 382 C-48.12064816 381.52992654 -50.24185869 381.06225713 -52.36572266 380.60693359 C-65.97239038 377.47197753 -78.74115168 372.62037318 -91 366 C-93.33253477 364.89414737 -95.66588289 363.79000886 -98 362.6875 C-105.58972644 358.88839671 -112.25759583 354.12672155 -119 349 C-119.59296875 348.55124512 -120.1859375 348.10249023 -120.796875 347.64013672 C-124.55482809 344.79001523 -128.28825159 341.91017413 -132 339 C-132.94746094 338.28585937 -133.89492187 337.57171875 -134.87109375 336.8359375 C-135.57363281 336.23007812 -136.27617187 335.62421875 -137 335 C-137 334.34 -137 333.68 -137 333 C-137.928125 332.62875 -137.928125 332.62875 -138.875 332.25 C-141.40358627 330.76259631 -141.71839004 329.56321991 -143 327 C-143.59425781 326.73058594 -144.18851563 326.46117187 -144.80078125 326.18359375 C-147.69794293 324.6243753 -149.15482815 322.64314167 -151.1875 320.0625 C-154.65642364 315.68178195 -154.65642364 315.68178195 -158.234375 311.390625 C-186.13343944 278.74278363 -200.97538807 231.68180723 -199 189 C-198.96422852 188.10104004 -198.92845703 187.20208008 -198.89160156 186.27587891 C-197.56502171 156.15670637 -189.96519222 128.22202608 -175.10180664 101.96191406 C-174.33552163 100.59744113 -173.58585562 99.22355618 -172.84936523 97.84277344 C-169.78851738 92.14765519 -166.29012009 86.93811642 -162.4375 81.75 C-161.52266846 80.51382935 -161.52266846 80.51382935 -160.58935547 79.25268555 C-155.17167847 72.03825107 -149.30855925 65.43787086 -143 59 C-141.94232422 57.88431641 -141.94232422 57.88431641 -140.86328125 56.74609375 C-104.78779858 19.3534535 -51.21500734 0 0 0 Z " fill="#FDC747" transform="translate(270,27)"/>
<path d="M0 0 C57.3684497 1.61601267 108.12312951 22.27226263 148.17578125 63.828125 C172.49852282 89.85890707 189.11716397 123.17231612 196 158 C196.16371094 158.78213867 196.32742188 159.56427734 196.49609375 160.37011719 C206.30282534 208.28937382 193.68955912 258.81982066 167.43359375 299.38671875 C164.25087931 304.18253876 160.73277651 308.62222167 157 313 C156.12377543 314.05888369 155.24885511 315.11884754 154.375 316.1796875 C138.42004049 335.4458954 119.14615841 351.31191479 97 363 C96.36980957 363.33628418 95.73961914 363.67256836 95.09033203 364.01904297 C68.60849885 378.05434863 38.02489883 387.40712255 7.875 387.0625 C5.27625 387.041875 2.6775 387.02125 0 387 C0 378.75 0 370.5 0 362 C1.959375 361.85304688 3.91875 361.70609375 5.9375 361.5546875 C47.73214516 358.14945209 87.0329531 345.28709861 118 316 C119.34989846 314.84914139 120.70390621 313.70308069 122.0625 312.5625 C151.0783231 287.02162578 169.14845053 246.13902586 172 208 C172.65203195 191.79289139 172.4838234 175.87612155 169 160 C168.85546387 159.31196289 168.71092773 158.62392578 168.56201172 157.91503906 C163.48209822 134.14126893 152.87401215 112.18822816 138 93 C137.36964844 92.14792969 136.73929688 91.29585938 136.08984375 90.41796875 C111.08224508 57.55235606 72.26369707 36.23247133 32 29 C31.14937988 28.83516113 30.29875977 28.67032227 29.42236328 28.50048828 C21.52404758 27.05191752 13.76841367 26.58394889 5.75 26.375 C3.89955078 26.31699219 3.89955078 26.31699219 2.01171875 26.2578125 C-0.99204937 26.1646724 -3.99582878 26.07885469 -7 26 C-7 25.67 -7 25.34 -7 25 C-4.69 25 -2.38 25 0 25 C0 16.75 0 8.5 0 0 Z " fill="#03C3F5" transform="translate(270,27)"/>
<path d="M0 0 C0 8.25 0 16.5 0 25 C-1.77503906 25.18175781 -3.55007813 25.36351563 -5.37890625 25.55078125 C-40.77557793 29.26281048 -75.49379398 37.44762182 -104 60 C-104.8146875 60.62390625 -105.629375 61.2478125 -106.46875 61.890625 C-126.10372802 77.17608257 -141.30336195 95.05643166 -153 117 C-153.34305176 117.63695801 -153.68610352 118.27391602 -154.03955078 118.93017578 C-166.62928329 142.48871999 -170.96709153 167.57218993 -173 194 C-181.58 194 -190.16 194 -199 194 C-197.73085624 160.93661675 -191.57365829 131.06380791 -175.10180664 101.96191406 C-174.33552163 100.59744113 -173.58585562 99.22355618 -172.84936523 97.84277344 C-169.78851738 92.14765519 -166.29012009 86.93811642 -162.4375 81.75 C-161.52266846 80.51382935 -161.52266846 80.51382935 -160.58935547 79.25268555 C-155.17167847 72.03825107 -149.30855925 65.43787086 -143 59 C-141.94232422 57.88431641 -141.94232422 57.88431641 -140.86328125 56.74609375 C-104.78779858 19.3534535 -51.21500734 0 0 0 Z " fill="#F81624" transform="translate(270,27)"/>
<path d="M0 0 C57.3684497 1.61601267 108.12312951 22.27226263 148.17578125 63.828125 C172.5553858 89.91976319 188.9797738 123.14012559 196 158 C196.18836426 158.86455811 196.37672852 159.72911621 196.57080078 160.61987305 C198.01870139 167.6954508 198.23879982 174.48236014 198.125 181.6875 C198.08375 185.420625 198.0425 189.15375 198 193 C189.75 193 181.5 193 173 193 C172.7525 189.596875 172.505 186.19375 172.25 182.6875 C169.50713958 149.81279151 158.41923429 119.11843839 138 93 C137.05640625 91.72576172 137.05640625 91.72576172 136.09375 90.42578125 C111.10634182 57.55039888 72.25365746 36.23066793 32 29 C31.14937988 28.83516113 30.29875977 28.67032227 29.42236328 28.50048828 C21.52404758 27.05191752 13.76841367 26.58394889 5.75 26.375 C3.89955078 26.31699219 3.89955078 26.31699219 2.01171875 26.2578125 C-0.99204937 26.1646724 -3.99582878 26.07885469 -7 26 C-7 25.67 -7 25.34 -7 25 C-4.69 25 -2.38 25 0 25 C0 16.75 0 8.5 0 0 Z " fill="#02B655" transform="translate(270,27)"/>
<path d="M0 0 C18.48 0 36.96 0 56 0 C50.77674718 10.44650564 44.79495145 20.45636839 38.54345703 30.31347656 C35.11384729 35.74606518 31.96987494 41.30170336 29 47 C28.34 47 27.68 47 27 47 C26.65388672 46.35168213 26.30777344 45.70336426 25.95117188 45.03540039 C22.00218709 37.7090971 17.80648072 30.55841811 13.5 23.4375 C12.54287109 21.84905273 12.54287109 21.84905273 11.56640625 20.22851562 C7.88890137 14.12526203 7.88890137 14.12526203 4.1953125 8.03173828 C3.64617187 7.12536621 3.09703125 6.21899414 2.53125 5.28515625 C2.04205078 4.48086182 1.55285156 3.67656738 1.04882812 2.84790039 C0 1 0 1 0 0 Z " fill="#059C40" transform="translate(317,164)"/>
<path d="M0 0 C11.88 0 23.76 0 36 0 C35.08194602 3.67221594 34.06693433 5.86138516 32.1640625 9.0625 C31.59429687 10.02414063 31.02453125 10.98578125 30.4375 11.9765625 C29.839375 12.97429687 29.24125 13.97203125 28.625 15 C28.03460938 15.99773437 27.44421875 16.99546875 26.8359375 18.0234375 C21.15044002 27.57609769 21.15044002 27.57609769 19 30 C18.01 30 17.02 30 16 30 C15.59273682 29.25278687 15.59273682 29.25278687 15.17724609 28.49047852 C8.58869467 16.24081067 8.58869467 16.24081067 0.9609375 4.62890625 C0 3 0 3 0 0 Z " fill="#F6FEFA" transform="translate(327,170)"/>
<path d="M0 0 C0.99 0.33 1.98 0.66 3 1 C2.23816406 1.67804688 1.47632813 2.35609375 0.69140625 3.0546875 C-14.58877622 16.77105045 -26.34752924 31.89140752 -36 50 C-36.34305176 50.63695801 -36.68610352 51.27391602 -37.03955078 51.93017578 C-49.62928329 75.48871999 -53.96709153 100.57218993 -56 127 C-64.58 127 -73.16 127 -82 127 C-80.4903866 87.6719682 -80.4903866 87.6719682 -74 71 C-73.01 70.505 -73.01 70.505 -72 70 C-72.34200104 76.30932961 -73.09855382 81.80036535 -75.3046875 87.72265625 C-76.34107048 91.11710162 -76.56033378 94.50229258 -76.7890625 98.03125 C-77 100 -77 100 -78 101 C-78.22789426 102.77690109 -78.39489788 104.56169968 -78.53515625 106.34765625 C-78.62216797 107.42724609 -78.70917969 108.50683594 -78.79882812 109.61914062 C-78.88583984 110.75544922 -78.97285156 111.89175781 -79.0625 113.0625 C-79.15337891 114.20267578 -79.24425781 115.34285156 -79.33789062 116.51757812 C-79.56264353 119.34473305 -79.78183513 122.17232906 -80 125 C-72.74 125 -65.48 125 -58 125 C-57.896875 122.751875 -57.79375 120.50375 -57.6875 118.1875 C-56.35133914 95.62513458 -50.91472156 74.32648721 -41 54 C-40.69336426 53.36755371 -40.38672852 52.73510742 -40.07080078 52.08349609 C-30.21504094 32.03987461 -15.95148098 15.45038734 0 0 Z " fill="#AA1C25" transform="translate(153,94)"/>
<path d="M0 0 C5.61 0 11.22 0 17 0 C17.33 0.66 17.66 1.32 18 2 C25.59 2.33 33.18 2.66 41 3 C41 3.33 41 3.66 41 4 C29.45 4 17.9 4 6 4 C9.86597805 11.08762643 13.74886412 18.01863453 18.00585938 24.85351562 C21.46651242 30.51046649 21.46651242 30.51046649 22 34 C25.60802111 32.7973263 26.64645803 31.44192746 29 28.5 C31 26 31 26 33 24 C31.57149137 31.85679748 29.05800899 38.16953448 25 45 C24.34 45 23.68 45 23 45 C22.65678711 44.35675781 22.31357422 43.71351563 21.95996094 43.05078125 C17.9295808 35.57150534 13.64098639 28.27230162 9.25 21 C8.57839844 19.88238281 7.90679687 18.76476562 7.21484375 17.61328125 C3.69651805 11.75044342 3.69651805 11.75044342 0 6 C0 4.02 0 2.04 0 0 Z " fill="#128740" transform="translate(321,166)"/>
<path d="M0 0 C4.03141385 3.74499013 6.94481802 7.6294964 9.8125 12.3125 C10.24481934 13.0147168 10.67713867 13.71693359 11.12255859 14.44042969 C23.1345318 34.25554338 31.42675248 55.29092628 36 78 C36.18836426 78.86455811 36.37672852 79.72911621 36.57080078 80.61987305 C38.01880969 87.69598004 38.23975399 94.48006691 38.125 101.6875 C38.11597656 102.78255859 38.10695313 103.87761719 38.09765625 105.00585938 C38.07438154 107.67081354 38.04169135 110.33528134 38 113 C37.67 113 37.34 113 37 113 C36.96036133 112.34741211 36.92072266 111.69482422 36.87988281 111.02246094 C35.4911086 89.11665771 33.42931871 64.62394642 23.31640625 44.6796875 C22 42 22 42 22 38 C21.34 38 20.68 38 20 38 C17.84705349 32.71169451 15.72066106 27.44876003 14 22 C13.34 22 12.68 22 12 22 C11.649375 21.05125 11.29875 20.1025 10.9375 19.125 C9.105236 14.79099093 6.41560435 11.19175984 3.62109375 7.4296875 C2.01147133 5.01719318 0.97397564 2.72325527 0 0 Z " fill="#148847" transform="translate(430,107)"/>
<path d="M0 0 C2.85491078 0.60996993 5.08893581 1.50759147 7.625 2.9375 C16.43037697 7.38196599 25.88670786 7.30034372 35.55892754 7.33552551 C37.79124724 7.34391979 40.02317802 7.36451146 42.25538635 7.38806152 C47.78839811 7.44403172 53.32150329 7.47977903 58.85467529 7.51568604 C63.55536168 7.54692338 68.25585035 7.58605846 72.95637703 7.63594055 C75.15392325 7.65597944 77.35131654 7.66431646 79.54893494 7.67224121 C80.89127163 7.6852082 82.23360313 7.69872771 83.57592773 7.71289062 C85.33271095 7.72382751 85.33271095 7.72382751 87.12498474 7.73498535 C90 8 90 8 93 10 C92.67 10.99 92.34 11.98 92 13 C91.47483795 12.67559433 90.9496759 12.35118866 90.40859985 12.01695251 C87.30619994 10.70706561 84.82986867 10.74107499 81.46240234 10.72875977 C80.81463837 10.72353302 80.16687439 10.71830627 79.4994812 10.71292114 C78.09614857 10.70270139 76.69277824 10.69690427 75.28940964 10.69503975 C73.05983769 10.69136321 70.83070551 10.67459845 68.60122681 10.65428162 C62.26336908 10.59901689 55.92544525 10.56832122 49.58740234 10.54370117 C45.7052434 10.52771523 41.8233928 10.49737538 37.94139481 10.45893669 C36.47041759 10.44737544 34.99938492 10.44135713 33.52836227 10.44125557 C22.8997688 10.44025637 13.55938694 9.6772 4.375 3.875 C3.53710938 3.35679687 2.69921875 2.83859375 1.8359375 2.3046875 C1.23007813 1.87414062 0.62421875 1.44359375 0 1 C0 0.67 0 0.34 0 0 Z " fill="#0E0B0C" transform="translate(150,243)"/>
<path d="M0 0 C-3.5095883 2.33972554 -5.40005855 2.34391369 -9.5625 2.5625 C-13.94020666 2.66806962 -13.94020666 2.66806962 -18 4 C-21.3 4 -24.6 4 -28 4 C-28 11.26 -28 18.52 -28 26 C-27.01 25.67 -26.02 25.34 -25 25 C-22.93637009 24.84970012 -20.86876085 24.75155552 -18.80078125 24.68359375 C-17.59228516 24.64169922 -16.38378906 24.59980469 -15.13867188 24.55664062 C-13.87603516 24.51732422 -12.61339844 24.47800781 -11.3125 24.4375 C-10.03826172 24.39431641 -8.76402344 24.35113281 -7.45117188 24.30664062 C-4.30089148 24.2004514 -1.15053161 24.09840467 2 24 C2 24.33 2 24.66 2 25 C-9.11528787 26.67552119 -19.75202006 27.18746633 -31 27 C-31 18.75 -31 10.5 -31 2 C-25.555 1.505 -25.555 1.505 -20 1 C-18.87207031 0.89558594 -17.74414062 0.79117187 -16.58203125 0.68359375 C-11.02824116 0.19009759 -5.57531999 -0.10721769 0 0 Z " fill="#2EAFCD" transform="translate(301,387)"/>
<path d="M0 0 C0.33 0 0.66 0 1 0 C6.06763433 26.19785963 3.28180257 52.82693141 -3.5625 78.3359375 C-3.79066406 79.18720215 -4.01882813 80.0384668 -4.25390625 80.91552734 C-5 83 -5 83 -7 85 C-7.31054643 80.0312571 -6.62096592 76.91909843 -4.79956055 72.22363281 C3.27949813 49.75521557 0.38697204 23.42073828 0 0 Z " fill="#CCFAFE" transform="translate(440,191)"/>
<path d="M0 0 C1.88654097 5.24039158 0.31736908 10.27019166 -1.5 15.3125 C-3.00188556 19.54840054 -3.49925561 23.55994377 -3.7890625 28.03125 C-4 30 -4 30 -5 31 C-5.22789426 32.77690109 -5.39489788 34.56169968 -5.53515625 36.34765625 C-5.62216797 37.42724609 -5.70917969 38.50683594 -5.79882812 39.61914062 C-5.88583984 40.75544922 -5.97285156 41.89175781 -6.0625 43.0625 C-6.15337891 44.20267578 -6.24425781 45.34285156 -6.33789062 46.51757812 C-6.56264353 49.34473305 -6.78183513 52.17232906 -7 55 C0.26 55 7.52 55 15 55 C15 53.02 15 51.04 15 49 C15.33 49 15.66 49 16 49 C16.04241723 51.33294775 16.04092937 53.66702567 16 56 C15 57 15 57 12.68334961 57.11352539 C11.68311768 57.10828857 10.68288574 57.10305176 9.65234375 57.09765625 C8.57275391 57.09443359 7.49316406 57.09121094 6.38085938 57.08789062 C5.24455078 57.07951172 4.10824219 57.07113281 2.9375 57.0625 C1.79732422 57.05798828 0.65714844 57.05347656 -0.51757812 57.04882812 C-3.34510351 57.03699747 -6.1725264 57.0205141 -9 57 C-7.20291654 7.20291654 -7.20291654 7.20291654 0 0 Z " fill="#BE2115" transform="translate(80,164)"/>
<path d="M0 0 C0.66 0 1.32 0 2 0 C0.69312868 4.39999033 -1.02068175 7.96480343 -3.4765625 11.8359375 C-4.146875 12.89941406 -4.8171875 13.96289062 -5.5078125 15.05859375 C-6.55582031 16.70021484 -6.55582031 16.70021484 -7.625 18.375 C-8.33912478 19.50353748 -9.05267209 20.63244058 -9.765625 21.76171875 C-11.50477656 24.51145838 -13.24970661 27.25734426 -15 30 C-16 27 -16 27 -16 25 C-16.99 26.98 -17.98 28.96 -19 31 C-20 28 -20 28 -18.9519043 25.65576172 C-18.41476807 24.75615723 -17.87763184 23.85655273 -17.32421875 22.9296875 C-16.74349609 21.95128906 -16.16277344 20.97289062 -15.56445312 19.96484375 C-14.94505859 18.94519531 -14.32566406 17.92554688 -13.6875 16.875 C-13.07970703 15.84761719 -12.47191406 14.82023438 -11.84570312 13.76171875 C-7.27959983 6.13979992 -7.27959983 6.13979992 -5 5 C-5 5.66 -5 6.32 -5 7 C-2.65941363 4.87219421 -1.29299694 2.88437779 0 0 Z " fill="#137F3E" transform="translate(368,168)"/>
<path d="M0 0 C-2.70628017 1.38971144 -5.42432619 2.62368247 -8.25 3.75 C-9.12914062 4.100625 -10.00828125 4.45125 -10.9140625 4.8125 C-13.79740411 5.92203905 -16.69867962 6.97095678 -19.60571289 8.01635742 C-32.01772832 12.52586127 -43.71381803 18.13691615 -54.66796875 25.5546875 C-57.043188 27.02676643 -59.38034661 28.04147673 -62 29 C-62 29.99 -62 30.98 -62 32 C-68.625 35 -68.625 35 -72 35 C-54.40000226 21.13631463 -34.96036584 10.83268619 -14 3 C-13.08863281 2.65839844 -12.17726562 2.31679688 -11.23828125 1.96484375 C-7.38582122 0.59578771 -4.15134299 -0.40174287 0 0 Z " fill="#A4161E" transform="translate(217,35)"/>
<path d="M0 0 C0.66 0 1.32 0 2 0 C3.94435379 9.84735329 4.28199129 19.33571543 4.20581055 29.3371582 C4.18760396 31.79844667 4.1853015 34.25935431 4.18554688 36.72070312 C4.12174479 65.87825521 4.12174479 65.87825521 2 68 C1.76807135 69.51469448 1.58784762 71.03754562 1.4375 72.5625 C1.35371094 73.38878906 1.26992188 74.21507812 1.18359375 75.06640625 C1.12300781 75.70449219 1.06242187 76.34257812 1 77 C-0.485 77.495 -0.485 77.495 -2 78 C-1.87882812 77.31413818 -1.75765625 76.62827637 -1.6328125 75.92163086 C0.7985138 61.76499968 2.40683044 47.97721233 2.375 33.625 C2.37628906 32.37452881 2.37757813 31.12405762 2.37890625 29.83569336 C2.29240702 22.44443257 1.62254951 15.33090481 0.42431641 8.03662109 C0.04250383 5.30417873 -0.08000695 2.75287905 0 0 Z " fill="#CAF8FC" transform="translate(466,186)"/>
<path d="M0 0 C1.81302797 0.28836655 3.6253932 0.58090027 5.4375 0.875 C6.95150391 1.11863281 6.95150391 1.11863281 8.49609375 1.3671875 C11.05989308 1.8302148 13.51010398 2.37431413 16.03125 3 C22.29930452 4.41760878 28.66467627 4.7100428 35.0625 5.125 C36.93325195 5.25455078 36.93325195 5.25455078 38.84179688 5.38671875 C41.89411817 5.59722367 44.9470082 5.79945407 48 6 C48 14.25 48 22.5 48 31 C46 29 46 29 45.77294922 26.84521484 C45.78342285 25.97590332 45.79389648 25.1065918 45.8046875 24.2109375 C45.81113281 23.26992188 45.81757813 22.32890625 45.82421875 21.359375 C45.84097656 20.37453125 45.85773438 19.3896875 45.875 18.375 C45.88402344 17.38242187 45.89304687 16.38984375 45.90234375 15.3671875 C45.92595884 12.91121866 45.95889201 10.45572832 46 8 C45.38511719 8.01160156 44.77023437 8.02320313 44.13671875 8.03515625 C43.32847656 8.04417969 42.52023437 8.05320312 41.6875 8.0625 C40.48673828 8.07990234 40.48673828 8.07990234 39.26171875 8.09765625 C37 8 37 8 34 7 C31.64816797 6.82040555 29.29325437 6.67992824 26.9375 6.5625 C10.63139915 5.63139915 10.63139915 5.63139915 8 3 C6.845 2.855625 5.69 2.71125 4.5 2.5625 C3.345 2.376875 2.19 2.19125 1 2 C0.67 1.34 0.34 0.68 0 0 Z " fill="#F0CB6D" transform="translate(222,383)"/>
<path d="M0 0 C0.66 0.33 1.32 0.66 2 1 C1.57291748 1.39155273 1.14583496 1.78310547 0.70581055 2.18652344 C-15.73680753 16.4292418 -15.73680753 16.4292418 -28 34 C-29.33333333 35.33333333 -30.66666667 36.66666667 -32 38 C-32.495 39.03125 -32.99 40.0625 -33.5 41.125 C-35.13591335 44.26050059 -35.89790485 44.65575877 -39 46 C-39.33 46.99 -39.66 47.98 -40 49 C-40.33 48.34 -40.66 47.68 -41 47 C-29.33949885 29.77916728 -16.38237305 13.02188627 0 0 Z " fill="#9C1117" transform="translate(141,73)"/>
<path d="M0 0 C0.33 0 0.66 0 1 0 C0.9278125 1.20914063 0.855625 2.41828125 0.78125 3.6640625 C-0.3697003 21.7317992 -0.3697003 21.7317992 0.77734375 39.7578125 C1.21429123 44.15795027 1.07429616 48.58350597 1 53 C0.34 53 -0.32 53 -1 53 C-2.38802816 42.96158203 -3.19415363 33.07930101 -3.1875 22.9375 C-3.18814453 21.96796387 -3.18878906 20.99842773 -3.18945312 19.99951172 C-3.13527801 13.13527801 -3.13527801 13.13527801 -2 12 C-1.60430892 9.98688551 -1.25747809 7.96402792 -0.9375 5.9375 C-0.67259766 4.28041016 -0.67259766 4.28041016 -0.40234375 2.58984375 C-0.26957031 1.73519531 -0.13679688 0.88054687 0 0 Z " fill="#F7CED0" transform="translate(72,197)"/>
<path d="M0 0 C0.33 0 0.66 0 1 0 C1.50889864 19.50647644 0.72728733 37.76630521 -3 57 C-3.33 57 -3.66 57 -4 57 C-4.23714967 49.23019775 -3.58201625 41.63039113 -2.77456665 33.90652466 C-1.59618733 22.6180611 -0.5329894 11.33980887 0 0 Z " fill="#26AEC9" transform="translate(468,205)"/>
<path d="M0 0 C2.65936596 2.65936596 2.32963098 3.8956669 2.375 7.625 C2.0494186 35.9505814 2.0494186 35.9505814 -3 41 C-3.12375 42.051875 -3.2475 43.10375 -3.375 44.1875 C-4.00185594 48.01132125 -5.11723722 50.6437707 -7 54 C-7.97590253 50.93690463 -7.99466024 49.08351853 -7.07421875 46.015625 C-6.85540039 45.2534668 -6.63658203 44.49130859 -6.41113281 43.70605469 C-6.17233398 42.89555664 -5.93353516 42.08505859 -5.6875 41.25 C-1.90273628 27.65288589 -0.76751898 14.05771611 0 0 Z " fill="#1E9FCA" transform="translate(443,220)"/>
<path d="M0 0 C0.66 0.33 1.32 0.66 2 1 C2.41064453 3.13305664 2.41064453 3.13305664 2.6328125 5.91015625 C2.71660156 6.89951172 2.80039062 7.88886719 2.88671875 8.90820312 C2.96535156 9.94912109 3.04398437 10.99003906 3.125 12.0625 C3.21136719 13.10728516 3.29773438 14.15207031 3.38671875 15.22851562 C3.59958977 17.81844641 3.80361379 20.4087755 4 23 C5.98 23.33 7.96 23.66 10 24 C9.67 24.66 9.34 25.32 9 26 C3.72 26 -1.56 26 -7 26 C-7 25.67 -7 25.34 -7 25 C-4.69 25 -2.38 25 0 25 C0 16.75 0 8.5 0 0 Z " fill="#60AB68" transform="translate(270,27)"/>
<path d="M0 0 C5.61 0 11.22 0 17 0 C17.33 0.66 17.66 1.32 18 2 C25.59 2.33 33.18 2.66 41 3 C41 3.33 41 3.66 41 4 C28.79 4 16.58 4 4 4 C4 4.66 4 5.32 4 6 C3.34 6 2.68 6 2 6 C2 5.34 2 4.68 2 4 C1.34 4 0.68 4 0 4 C0 2.68 0 1.36 0 0 Z " fill="#16A653" transform="translate(321,166)"/>
<path d="M0 0 C0.82683893 2.36849346 1.10792077 3.64776779 0.36328125 6.078125 C0.01652344 6.79484375 -0.33023437 7.5115625 -0.6875 8.25 C-1.05746094 9.02730469 -1.42742187 9.80460938 -1.80859375 10.60546875 C-2.39833984 11.79076172 -2.39833984 11.79076172 -3 13 C-3.38285156 13.77988281 -3.76570313 14.55976563 -4.16015625 15.36328125 C-5.09434339 17.24839723 -6.0454992 19.12508771 -7 21 C-7.66 21 -8.32 21 -9 21 C-9.66 17.37 -10.32 13.74 -11 10 C-9.68 9.67 -8.36 9.34 -7 9 C-4.28314438 6.28314438 -1.72595481 3.45190963 0 0 Z " fill="#119146" transform="translate(353,190)"/>
<path d="M0 0 C4.62640153 -0.09901748 9.25218387 -0.17153649 13.87939453 -0.21972656 C15.45274604 -0.2398188 17.02602308 -0.26709799 18.59912109 -0.30175781 C20.86314272 -0.35038494 23.12617573 -0.37299135 25.390625 -0.390625 C26.09181458 -0.41127014 26.79300415 -0.43191528 27.51544189 -0.45318604 C31.05256581 -0.45480426 32.6947328 -0.24963271 35.47558594 2.02441406 C35.97864258 2.67635742 36.48169922 3.32830078 37 4 C36.01 4 35.02 4 34 4 C33.505 3.505 33.505 3.505 33 3 C30.6243148 2.9116033 28.27791326 2.88469695 25.90234375 2.90234375 C25.19348526 2.9037587 24.48462677 2.90517365 23.75428772 2.90663147 C21.48198288 2.91224557 19.20977525 2.92480037 16.9375 2.9375 C15.40039204 2.94251319 13.86328255 2.94707641 12.32617188 2.95117188 C8.55074358 2.96221958 4.77538829 2.97949359 1 3 C0.67 2.01 0.34 1.02 0 0 Z " fill="#0A0809" transform="translate(269,163)"/>
<path d="M0 0 C4.62957742 -0.34721831 7.71431729 0.55320515 11.8984375 2.265625 C15.22877786 3.42938706 18.49537502 3.68708706 22 4 C22 4.66 22 5.32 22 6 C22.71027344 5.98839844 23.42054688 5.97679687 24.15234375 5.96484375 C25.07144531 5.95582031 25.99054688 5.94679688 26.9375 5.9375 C27.85402344 5.92589844 28.77054688 5.91429687 29.71484375 5.90234375 C32 6 32 6 33 7 C36.21019977 7.2362647 39.41273872 7.39660302 42.62890625 7.51757812 C44.42413939 7.60924224 46.21385947 7.79759856 48 8 C48.495 8.99 48.495 8.99 49 10 C21.94444444 8.94444444 21.94444444 8.94444444 19 6 C17.69580196 5.67320778 16.3808181 5.389127 15.0625 5.125 C9.9473584 4.03947156 4.98734947 2.56180046 0 1 C0 0.67 0 0.34 0 0 Z " fill="#EDBC51" transform="translate(205,403)"/>
<path d="M0 0 C0.33 0.99 0.66 1.98 1 3 C-1.3125 6.1875 -1.3125 6.1875 -4 9 C-4.66 9 -5.32 9 -6 9 C-6.08918701 9.57741943 -6.17837402 10.15483887 -6.27026367 10.74975586 C-7.19303467 13.59524942 -8.5508019 14.90806718 -10.67578125 17.00390625 C-11.42150391 17.74447266 -12.16722656 18.48503906 -12.93554688 19.24804688 C-13.71994141 20.01181641 -14.50433594 20.77558594 -15.3125 21.5625 C-16.08529297 22.33013672 -16.85808594 23.09777344 -17.65429688 23.88867188 C-20.97343922 27.16215104 -24.21195444 30.26957633 -28 33 C-28.66 32.67 -29.32 32.34 -30 32 C-29.16597656 31.24976563 -28.33195312 30.49953125 -27.47265625 29.7265625 C-17.34199528 20.54267816 -8.42336103 10.78741059 0 0 Z " fill="#D8FAFE" transform="translate(432,333)"/>
<path d="M0 0 C1 3 1 3 -0.06054688 5.29321289 C-0.88135742 6.61953735 -0.88135742 6.61953735 -1.71875 7.97265625 C-2.32203125 8.95556641 -2.9253125 9.93847656 -3.546875 10.95117188 C-4.19140625 11.97791016 -4.8359375 13.00464844 -5.5 14.0625 C-6.11359375 15.06216797 -6.7271875 16.06183594 -7.359375 17.09179688 C-11.35665724 23.5537899 -15.57265101 29.82541717 -20 36 C-20.33 35.34 -20.66 34.68 -21 34 C-20.15478516 32.15917969 -20.15478516 32.15917969 -18.7890625 29.921875 C-18.28987305 29.09655273 -17.79068359 28.27123047 -17.27636719 27.42089844 C-16.73141602 26.53950195 -16.18646484 25.65810547 -15.625 24.75 C-15.08004883 23.85571289 -14.53509766 22.96142578 -13.97363281 22.04003906 C-9.43236422 14.6182935 -4.77051311 7.27623716 0 0 Z " fill="#0E0C0D" transform="translate(403,199)"/>
<path d="M0 0 C18.48 0 36.96 0 56 0 C55.67 0.99 55.34 1.98 55 3 C54.34 3 53.68 3 53 3 C53 2.34 53 1.68 53 1 C36.83 1 20.66 1 4 1 C4 2.65 4 4.3 4 6 C2 5 2 5 0 0 Z " fill="#0E6F31" transform="translate(317,164)"/>
<path d="M0 0 C0.99 0.33 1.98 0.66 3 1 C2.23816406 1.67804688 1.47632813 2.35609375 0.69140625 3.0546875 C-10.13870236 12.77817258 -19.27468053 23.37838451 -28 35 C-28 24.63576954 -10.21418174 10.1760693 -3.3125 3.25 C-2.21100174 2.16395362 -1.10799274 1.07941986 0 0 Z " fill="#9F121A" transform="translate(153,94)"/>
<path d="M0 0 C7.92 0 15.84 0 24 0 C23.67 0.99 23.34 1.98 23 3 C15.74 3 8.48 3 1 3 C0.67 2.01 0.34 1.02 0 0 Z " fill="#09C7D6" transform="translate(444,220)"/>
<path d="M0 0 C6.79347651 6.33664837 10.5592868 13.92071384 10.9921875 23.19921875 C10.99476563 23.79347656 10.99734375 24.38773438 11 25 C8.36479259 22.59497637 6.59697057 19.9814151 4.75 16.9375 C4.20859375 16.05964844 3.6671875 15.18179688 3.109375 14.27734375 C2.74328125 13.52582031 2.3771875 12.77429688 2 12 C2.33 11.34 2.66 10.68 3 10 C3 6.40577503 1.85018932 5.00655764 0 2 C0 1.34 0 0.68 0 0 Z " fill="#0F7839" transform="translate(333,183)"/>
<path d="M0 0 C10.23 0 20.46 0 31 0 C30.34 1.65 29.68 3.3 29 5 C28.34 4.34 27.68 3.68 27 3 C24.08811755 2.62731113 24.08811755 2.62731113 20.6796875 2.5859375 C19.42285156 2.54726562 18.16601562 2.50859375 16.87109375 2.46875 C15.55238281 2.4378125 14.23367188 2.406875 12.875 2.375 C11.53513082 2.33681971 10.19528617 2.29776794 8.85546875 2.2578125 C5.57045381 2.1632797 2.28544862 2.07772844 -1 2 C-0.67 1.34 -0.34 0.68 0 0 Z " fill="#090707" transform="translate(396,163)"/>
<path d="M0 0 C10.24590275 0.31309924 20.36341975 0.84450957 30.5 2.4375 C31.6907312 2.62082886 31.6907312 2.62082886 32.90551758 2.80786133 C36.5654448 3.41884169 39.81199577 4.04141229 43 6 C36.25 6.125 36.25 6.125 34 5 C27.49888045 4.04081843 21.19184835 3.9408917 14.625 4.0625 C12 4 12 4 11 3 C8.41977858 2.71778828 5.83969815 2.55179803 3.25 2.37890625 C2.5075 2.25386719 1.765 2.12882812 1 2 C0.67 1.34 0.34 0.68 0 0 Z " fill="#0E803D" transform="translate(271,27)"/>
<path d="M0 0 C0.33 0.99 0.66 1.98 1 3 C1.66 3 2.32 3 3 3 C3.92553743 6.13850064 4.11664647 8.93680778 4.09765625 12.203125 C4.09443359 13.1828125 4.09121094 14.1625 4.08789062 15.171875 C4.07951172 16.18765625 4.07113281 17.2034375 4.0625 18.25 C4.05798828 19.28125 4.05347656 20.3125 4.04882812 21.375 C4.03706088 23.91672573 4.02062011 26.45833319 4 29 C3.34 29 2.68 29 2 29 C1.66234191 25.29204724 1.33064486 21.58358419 1 17.875 C0.90460938 16.82828125 0.80921875 15.7815625 0.7109375 14.703125 C0.2754393 9.7882167 -0.13675514 4.94027946 0 0 Z " fill="#0F8D42" transform="translate(441,191)"/>
<path d="M0 0 C0.99 0.66 1.98 1.32 3 2 C3 2.66 3 3.32 3 4 C-0.46372115 5.05904576 -3.65823127 5.12913474 -7.26953125 5.1328125 C-8.48833984 5.13410156 -9.70714844 5.13539063 -10.96289062 5.13671875 C-12.23326172 5.13285156 -13.50363281 5.12898438 -14.8125 5.125 C-16.07126953 5.12886719 -17.33003906 5.13273437 -18.62695312 5.13671875 C-20.4609668 5.13478516 -20.4609668 5.13478516 -22.33203125 5.1328125 C-23.99842651 5.13112061 -23.99842651 5.13112061 -25.69848633 5.12939453 C-29.18893331 4.99259523 -32.55244941 4.54979546 -36 4 C-36 3.67 -36 3.34 -36 3 C-24.12 3 -12.24 3 0 3 C0 2.01 0 1.02 0 0 Z " fill="#131113" transform="translate(253,272)"/>
<path d="M0 0 C-1 2 -1 2 -2.78857422 2.62841797 C-10.26296695 4.15626504 -17.51627377 4.23090304 -25.125 4.125 C-26.98898437 4.11146484 -26.98898437 4.11146484 -28.890625 4.09765625 C-31.92729004 4.07429729 -34.96353853 4.04154283 -38 4 C-38 3.67 -38 3.34 -38 3 C-36.86570557 2.91697632 -36.86570557 2.91697632 -35.70849609 2.83227539 C-32.26378096 2.57852932 -28.8193949 2.32055509 -25.375 2.0625 C-23.59029297 1.93198242 -23.59029297 1.93198242 -21.76953125 1.79882812 C-20.61582031 1.71181641 -19.46210938 1.62480469 -18.2734375 1.53515625 C-17.21560059 1.456604 -16.15776367 1.37805176 -15.06787109 1.29711914 C-1.34415829 -0.03200377 -1.34415829 -0.03200377 0 0 Z " fill="#D4F7FE" transform="translate(309,411)"/>
<path d="M0 0 C0.33 0.66 0.66 1.32 1 2 C-0.21230458 4.38196529 -1.47371743 6.60679137 -2.875 8.875 C-3.28049072 9.54031738 -3.68598145 10.20563477 -4.10375977 10.89111328 C-14.56449414 27.78224707 -14.56449414 27.78224707 -19 30 C-18.03661664 27.19013186 -17.0700153 25.08736692 -15.203125 22.7578125 C-12.72350853 19.65389543 -10.61689012 16.4184572 -8.5 13.0625 C-7.74008397 11.86556742 -6.97967128 10.66895002 -6.21875 9.47265625 C-5.85265625 8.89660645 -5.4865625 8.32055664 -5.109375 7.72705078 C-3.44008027 5.12832918 -1.72228482 2.56385581 0 0 Z " fill="#22A3CD" transform="translate(445,310)"/>
<path d="M0 0 C0.33 0 0.66 0 1 0 C1.76249186 10.674886 -1.54321389 20.98777717 -5 31 C-5.33 31 -5.66 31 -6 31 C-6.30224496 26.16408069 -5.75885865 23.12865905 -3.8671875 18.59765625 C-1.86626778 12.60391025 -1.06369108 6.2161805 0 0 Z " fill="#D3FBFE" transform="translate(439,245)"/>
<path d="M0 0 C0.33 0 0.66 0 1 0 C2.53653322 9.79539929 3.27538262 19.07092668 3 29 C2.34 29 1.68 29 1 29 C0.07027443 19.30429046 -0.11237377 9.72657452 0 0 Z " fill="#D5F8E4" transform="translate(440,191)"/>
<path d="M0 0 C4.28023232 3.88560097 6.98205506 7.94873347 9.75 13 C10.14832031 13.69867188 10.54664063 14.39734375 10.95703125 15.1171875 C12.96273003 18.72064633 14.51224737 21.83784423 15 26 C9.83311721 19.8394859 5.4569943 13.25968804 2 6 C1.34 5.01 0.68 4.02 0 3 C0 2.01 0 1.02 0 0 Z " fill="#0F0D0E" transform="translate(252,176)"/>
<path d="M0 0 C4.84691076 7.27036614 8 18.26025509 8 27 C7.34 27 6.68 27 6 27 C5.73445313 25.91460937 5.46890625 24.82921875 5.1953125 23.7109375 C4.83866918 22.26559353 4.4818912 20.82028278 4.125 19.375 C3.95097656 18.66214844 3.77695312 17.94929688 3.59765625 17.21484375 C2.79480498 13.97370344 1.94093342 10.82444101 0.875 7.65625 C-0.02061362 4.93742293 -0.16711065 2.84088099 0 0 Z " fill="#1E8E4F" transform="translate(457,156)"/>
<path d="M0 0 C0.99 0.33 1.98 0.66 3 1 C3.33 1.99 3.66 2.98 4 4 C4.78375 4.78375 5.5675 5.5675 6.375 6.375 C11.15933327 11.15933327 12.57740011 15.5435851 14 22 C11.80620482 19.93263231 10.14983478 17.86680811 8.5546875 15.3125 C8.11769531 14.61382812 7.68070312 13.91515625 7.23046875 13.1953125 C6.78316406 12.47085938 6.33585937 11.74640625 5.875 11 C5.41996094 10.27554688 4.96492188 9.55109375 4.49609375 8.8046875 C2.66301772 5.85653555 1.10341613 3.3102484 0 0 Z " fill="#129246" transform="translate(411,122)"/>
<path d="M0 0 C0.66 0 1.32 0 2 0 C4.35506098 11.33373096 4.21242223 22.47854499 4 34 C3.67 34 3.34 34 3 34 C2.94465088 33.32533691 2.88930176 32.65067383 2.83227539 31.95556641 C2.57658987 28.84530235 2.31955237 25.73515138 2.0625 22.625 C1.97548828 21.56410156 1.88847656 20.50320312 1.79882812 19.41015625 C1.26237362 12.9329648 0.67251944 6.4645139 0 0 Z " fill="#DAFBEF" transform="translate(466,186)"/>
<path d="M0 0 C0.33 0 0.66 0 1 0 C3.38297872 20.53191489 3.38297872 20.53191489 3 30 C2.34 30 1.68 30 1 30 C-0.3302664 20.02300197 -0.09502917 10.04385176 0 0 Z " fill="#FEEEC6" transform="translate(70,220)"/>
<path d="M0 0 C0.66 0.33 1.32 0.66 2 1 C-2.02051891 8.87351619 -6.64306682 15.97072473 -12 23 C-12.33 22.01 -12.66 21.02 -13 20 C-11.6015625 17.58984375 -11.6015625 17.58984375 -9.625 14.9375 C-7.10492378 11.59568792 -7.10492378 11.59568792 -5 8 C-4.34 8 -3.68 8 -3 8 C-2.87625 7.4225 -2.7525 6.845 -2.625 6.25 C-1.99351176 3.97664233 -1.11141809 2.0746471 0 0 Z " fill="#D3FAFE" transform="translate(422,297)"/>
<path d="M0 0 C1 3 1 3 -0.17163086 5.36010742 C-1.05927124 6.71906128 -1.05927124 6.71906128 -1.96484375 8.10546875 C-2.59970703 9.08837891 -3.23457031 10.07128906 -3.88867188 11.08398438 C-4.56478516 12.10814453 -5.24089844 13.13230469 -5.9375 14.1875 C-6.60974609 15.22326172 -7.28199219 16.25902344 -7.97460938 17.32617188 C-9.64065957 19.89023494 -11.31604178 22.44767676 -13 25 C-13.66 24.67 -14.32 24.34 -15 24 C-12.68979912 20.1861023 -10.37645684 16.37411987 -8.0625 12.5625 C-7.40314453 11.47388672 -6.74378906 10.38527344 -6.06445312 9.26367188 C-5.43603516 8.22919922 -4.80761719 7.19472656 -4.16015625 6.12890625 C-3.57886963 5.17056885 -2.99758301 4.21223145 -2.39868164 3.22485352 C-1 1 -1 1 0 0 Z " fill="#0E0C0D" transform="translate(375,244)"/>
<path d="M0 0 C0.144375 0.639375 0.28875 1.27875 0.4375 1.9375 C0.81007181 3.97545146 0.81007181 3.97545146 2 5 C0.6302836 8.99500618 -1.25722422 11.80009492 -4 15 C-3.67 13.02 -3.34 11.04 -3 9 C-4.32 11.31 -5.64 13.62 -7 16 C-7.33 15.01 -7.66 14.02 -8 13 C-6.76585956 10.65717548 -5.50753507 8.51707416 -4.0625 6.3125 C-3.67642578 5.70599609 -3.29035156 5.09949219 -2.89257812 4.47460938 C-1.93753581 2.97719735 -0.96993914 1.48780599 0 0 Z " fill="#107636" transform="translate(356,183)"/>
<path d="M0 0 C0.66 0 1.32 0 2 0 C1.4468998 3.87170143 -0.29810367 5.29810367 -3 8 C-3.495 9.03125 -3.99 10.0625 -4.5 11.125 C-6.13591335 14.26050059 -6.89790485 14.65575877 -10 16 C-10.33 16.99 -10.66 17.98 -11 19 C-11.33 18.34 -11.66 17.68 -12 17 C-10.56347677 14.91598726 -9.12581793 12.83277356 -7.6875 10.75 C-7.28337891 10.16347656 -6.87925781 9.57695313 -6.46289062 8.97265625 C-5.3146165 7.31092621 -4.15751498 5.65530639 -3 4 C-2.44957031 3.20078125 -1.89914063 2.4015625 -1.33203125 1.578125 C-0.89246094 1.05734375 -0.45289062 0.5365625 0 0 Z " fill="#B6131B" transform="translate(112,103)"/>
<path d="M0 0 C4.24598791 3.90997447 7.229433 8.09836134 10.25 13 C10.69601562 13.69867188 11.14203125 14.39734375 11.6015625 15.1171875 C13.8391617 18.71090743 15.56295746 21.69681194 16 26 C15.34 24.68 14.68 23.36 14 22 C13.34 22 12.68 22 12 22 C11.649375 21.05125 11.29875 20.1025 10.9375 19.125 C9.105236 14.79099093 6.41560435 11.19175984 3.62109375 7.4296875 C2.01147133 5.01719318 0.97397564 2.72325527 0 0 Z " fill="#128143" transform="translate(430,107)"/>
<path d="M0 0 C8.25 0 16.5 0 25 0 C25 0.33 25 0.66 25 1 C8.16402415 3.93537907 8.16402415 3.93537907 1 2 C0.67 1.34 0.34 0.68 0 0 Z " fill="#E4E2E4" transform="translate(161,276)"/>
<path d="M0 0 C3.14581423 -0.02888514 6.29159469 -0.04675923 9.4375 -0.0625 C10.33533203 -0.07087891 11.23316406 -0.07925781 12.15820312 -0.08789062 C13.01220703 -0.09111328 13.86621094 -0.09433594 14.74609375 -0.09765625 C15.93223267 -0.10551147 15.93223267 -0.10551147 17.14233398 -0.11352539 C19 0 19 0 20 1 C21.67884238 1.3931648 23.36850045 1.74085452 25.0625 2.0625 C25.98160156 2.23910156 26.90070313 2.41570313 27.84765625 2.59765625 C28.55792969 2.73042969 29.26820313 2.86320312 30 3 C30 3.33 30 3.66 30 4 C24.53503904 4.24840732 19.5337925 3.46908427 14.15625 2.51171875 C9.45850452 1.75007932 4.74348719 1.35482778 0 1 C0 0.67 0 0.34 0 0 Z " fill="#117D39" transform="translate(279,52)"/>
<path d="M0 0 C1.3609623 2.7219246 0.70366248 4.1831957 0.0625 7.125 C-0.13214844 8.03507813 -0.32679687 8.94515625 -0.52734375 9.8828125 C-0.68332031 10.58148438 -0.83929688 11.28015625 -1 12 C-1.66 12 -2.32 12 -3 12 C-2.9175 12.763125 -2.835 13.52625 -2.75 14.3125 C-3 17 -3 17 -5 18.8125 C-5.66 19.204375 -6.32 19.59625 -7 20 C-5.69039355 12.73763698 -3.24043814 6.6169252 0 0 Z " fill="#B8141B" transform="translate(88,143)"/>
<path d="M0 0 C3.58768848 3.23134922 5.94918097 6.90184877 8.3125 11.0625 C8.68439453 11.68705078 9.05628906 12.31160156 9.43945312 12.95507812 C10.37716113 14.5912651 11.19751295 16.29341902 12 18 C11.67 18.99 11.34 19.98 11 21 C9.15581105 18.06918424 7.32657583 15.1293193 5.5 12.1875 C4.97535156 11.35412109 4.45070313 10.52074219 3.91015625 9.66210938 C3.16572266 8.45844727 3.16572266 8.45844727 2.40625 7.23046875 C1.94541016 6.49207764 1.48457031 5.75368652 1.00976562 4.99291992 C0 3 0 3 0 0 Z " fill="#131112" transform="translate(317,186)"/>
<path d="M0 0 C3.82103167 3.5328073 5.99003497 7.31302686 8.4375 11.85546875 C9.81334705 14.16176744 9.81334705 14.16176744 12.1875 14.80078125 C12.785625 14.86652344 13.38375 14.93226563 14 15 C12 17 12 17 10.140625 17.0234375 C6.86787494 15.45872853 5.51265605 12.65415706 3.75 9.625 C3.38648438 9.03460938 3.02296875 8.44421875 2.6484375 7.8359375 C0.95825316 5.01472755 0 3.34370944 0 0 Z " fill="#1B1719" transform="translate(337,220)"/>
<path d="M0 0 C-1.74802146 0.81674796 -3.49850189 1.62823451 -5.25 2.4375 C-6.22453125 2.88996094 -7.1990625 3.34242188 -8.203125 3.80859375 C-12.41109692 5.60109575 -15.67810776 6.12265648 -20.25 6.0625 C-21.14203125 6.05347656 -22.0340625 6.04445313 -22.953125 6.03515625 C-23.62859375 6.02355469 -24.3040625 6.01195312 -25 6 C-25 5.67 -25 5.34 -25 5 C-23.84242188 4.73445313 -22.68484375 4.46890625 -21.4921875 4.1953125 C-19.95309007 3.83869236 -18.41402952 3.48191309 -16.875 3.125 C-16.11445313 2.95097656 -15.35390625 2.77695312 -14.5703125 2.59765625 C-11.15470905 1.8026451 -7.88773131 0.96087219 -4.5703125 -0.1953125 C-2 -1 -2 -1 0 0 Z " fill="#D5F7FD" transform="translate(334,405)"/>
<path d="M0 0 C-3.94311334 2.52274456 -8.20820789 2.66554839 -12.75 3.125 C-13.54277344 3.21136719 -14.33554688 3.29773438 -15.15234375 3.38671875 C-17.10083141 3.59800054 -19.05032976 3.79992467 -21 4 C-21 3.34 -21 2.68 -21 2 C-14.11997829 -0.62096065 -7.27823961 -0.18170362 0 0 Z " fill="#110F10" transform="translate(174,164)"/>
<path d="M0 0 C0.9318024 2.51586647 1.08775642 3.73175487 0.2421875 6.31640625 C-1.09388056 9.20281743 -2.66537898 11.65354483 -4.5 14.25 C-5.1084375 15.12140625 -5.716875 15.9928125 -6.34375 16.890625 C-8 19 -8 19 -10 20 C-8.53524189 16.01055832 -6.62274587 12.51555575 -4.4375 8.875 C-2.64686939 5.88937474 -1.10117028 3.30351083 0 0 Z " fill="#D3F9FD" transform="translate(449,304)"/>
<path d="M0 0 C1.32 0.33 2.64 0.66 4 1 C3.67 1.33 3.34 1.66 3 2 C3.66 2.33 4.32 2.66 5 3 C5 2.01 5 1.02 5 0 C5.99 0.33 6.98 0.66 8 1 C6.66666667 4.33333333 5.33333333 7.66666667 4 11 C3.34 11 2.68 11 2 11 C1.34 7.37 0.68 3.74 0 0 Z " fill="#17994E" transform="translate(342,200)"/>
<path d="M0 0 C2.34842593 6.52340535 -0.51151494 13.85618042 -3 20 C-3.66 20.99 -4.32 21.98 -5 23 C-3.76595745 3.76595745 -3.76595745 3.76595745 0 0 Z " fill="#AF151C" transform="translate(80,164)"/>
<path d="M0 0 C7.72329019 1.43993546 14.7282249 4.05532446 22 7 C18.1280483 8.29065057 15.55767399 7.22324098 11.8125 6.0625 C11.15830078 5.86720703 10.50410156 5.67191406 9.83007812 5.47070312 C8.21772593 4.98817437 6.60853711 4.49509795 5 4 C5 3.34 5 2.68 5 2 C3.35 2 1.7 2 0 2 C0 1.34 0 0.68 0 0 Z " fill="#E0F9EB" transform="translate(317,59)"/>
<path d="M0 0 C0.66 0.33 1.32 0.66 2 1 C2.04241723 3.33294775 2.04092937 5.66702567 2 8 C1.67 8.33 1.34 8.66 1 9 C0.76321284 11.69235776 0.57801975 14.36498156 0.4375 17.0625 C0.39431641 17.82111328 0.35113281 18.57972656 0.30664062 19.36132812 C0.20026367 21.24065438 0.09960066 23.12030244 0 25 C-0.33 25 -0.66 25 -1 25 C-2.52973684 16.4334737 -1.26437893 8.51627128 0 0 Z " fill="#BB1D25" transform="translate(74,186)"/>
<path d="M0 0 C0.66 0.33 1.32 0.66 2 1 C-3.04369556 7.32463411 -8.10598724 13.44711982 -14 19 C-14 15.46406542 -13.54779434 15.15799602 -11.19140625 12.71484375 C-10.60939453 12.10189453 -10.02738281 11.48894531 -9.42773438 10.85742188 C-8.81220703 10.22384766 -8.19667969 9.59027344 -7.5625 8.9375 C-6.3535632 7.67760696 -5.14644281 6.41596772 -3.94140625 5.15234375 C-3.40201416 4.59538818 -2.86262207 4.03843262 -2.30688477 3.46459961 C-0.89818078 2.01454336 -0.89818078 2.01454336 0 0 Z " fill="#25A1CA" transform="translate(424,340)"/>
<path d="M0 0 C2 2 2 2 2.23046875 5.08203125 C2.21628906 6.31308594 2.20210938 7.54414063 2.1875 8.8125 C2.18105469 10.03582031 2.17460937 11.25914062 2.16796875 12.51953125 C2.02525813 15.47662799 1.68369865 18.12846565 1 21 C-1.8202907 16.99561779 -1.00863471 12.87663461 -0.625 8.25 C-0.56828125 7.45722656 -0.5115625 6.66445312 -0.453125 5.84765625 C-0.31216305 3.89768265 -0.1574288 1.94871329 0 0 Z " fill="#1FADDB" transform="translate(443,220)"/>
<path d="M0 0 C1.36297018 4.08891053 -0.00645065 6.94623365 -1.3125 10.875 C-1.53873047 11.58269531 -1.76496094 12.29039062 -1.99804688 13.01953125 C-3.19998416 16.73964837 -4.49236506 20.39016986 -6 24 C-6.33 24 -6.66 24 -7 24 C-7.22558329 20.05229238 -6.52607388 17.6143855 -5 14 C-4.2310538 11.47522478 -3.50113792 8.94151366 -2.78125 6.40234375 C-2.04030176 4.12392791 -1.12966653 2.10838623 0 0 Z " fill="#21A7D0" transform="translate(461,270)"/>
<path d="M0 0 C3.84556115 1.28185372 4.42068027 2.78579777 6.28125 6.2109375 C7 8 7 8 6.75 10.4375 C6.5025 10.953125 6.255 11.46875 6 12 C0.15384615 5.23076923 0.15384615 5.23076923 -1 2 C-0.67 1.34 -0.34 0.68 0 0 Z " fill="#159748" transform="translate(331,184)"/>
<path d="M0 0 C1.46257541 4.46573024 -0.10551963 6.77385149 -2 11 C-2.144375 12.093125 -2.28875 13.18625 -2.4375 14.3125 C-2.623125 15.199375 -2.80875 16.08625 -3 17 C-5.03515625 18.16796875 -5.03515625 18.16796875 -7 19 C-4.94235079 12.54646385 -2.57616518 6.2638737 0 0 Z " fill="#1CA2CD" transform="translate(434,274)"/>
<path d="M0 0 C-0.74443359 0.43699219 -0.74443359 0.43699219 -1.50390625 0.8828125 C-6.42275853 3.8509245 -10.75172176 7.13672197 -15 11 C-15.66 10.67 -16.32 10.34 -17 10 C-5.76863482 -1.73301424 -5.76863482 -1.73301424 0 0 Z " fill="#0A0808" transform="translate(142,174)"/>
<path d="M0 0 C0 3 0 3 -1.390625 4.75390625 C-2.00421875 5.35074219 -2.6178125 5.94757813 -3.25 6.5625 C-3.85328125 7.16191406 -4.4565625 7.76132812 -5.078125 8.37890625 C-7.01284691 10.01083631 -8.62647075 11.12179418 -11 12 C-11.99 11.67 -12.98 11.34 -14 11 C-12.98679687 10.31164062 -12.98679687 10.31164062 -11.953125 9.609375 C-11.06109375 8.99578125 -10.1690625 8.3821875 -9.25 7.75 C-8.36828125 7.14671875 -7.4865625 6.5434375 -6.578125 5.921875 C-4.14566506 4.10858668 -2.08271931 2.19950731 0 0 Z " fill="#FAF9FA" transform="translate(363,268)"/>
<path d="M0 0 C0 4.09214774 -1.60222874 5.19193703 -4.3125 8.1875 C-5.11300781 9.08855469 -5.91351563 9.98960938 -6.73828125 10.91796875 C-9 13 -9 13 -12 13 C-8.04 8.71 -4.08 4.42 0 0 Z " fill="#EC1825" transform="translate(128,87)"/>
<path d="M0 0 C0.33 0 0.66 0 1 0 C1.66 5.28 2.32 10.56 3 16 C2.01 15.67 1.02 15.34 0 15 C0 10.05 0 5.1 0 0 Z " fill="#F2C463" transform="translate(97,236)"/>
<path d="M0 0 C2.97 0 5.94 0 9 0 C9 0.66 9 1.32 9 2 C13.455 2.99 13.455 2.99 18 4 C13.3233907 5.16915233 11.30322949 4.45376457 6.75 3.0625 C5.48671875 2.68222656 4.2234375 2.30195312 2.921875 1.91015625 C1.95765625 1.60980469 0.9934375 1.30945312 0 1 C0 0.67 0 0.34 0 0 Z " fill="#0F7D38" transform="translate(309,56)"/>
<path d="M0 0 C1.84187025 2.76280538 2.72248277 4.80707826 3.6875 7.9375 C3.95949219 8.79214844 4.23148437 9.64679688 4.51171875 10.52734375 C5.02075548 13.10510574 4.84888744 14.54449337 4 17 C1.16625922 11.33251843 0.36776168 6.30267439 0 0 Z " fill="#FEEAB9" transform="translate(76,265)"/>
<path d="M0 0 C0.33 0 0.66 0 1 0 C0.63495936 5.66442374 -0.0554321 10.00703705 -3 15 C-3.66 15 -4.32 15 -5 15 C-1.92482916 4.44191344 -1.92482916 4.44191344 0 0 Z " fill="#CDF8FC" transform="translate(457,285)"/>
<path d="M0 0 C2.7710688 2.34591852 3.52059284 4.14776201 4.1875 7.6875 C4.34605469 8.49574219 4.50460937 9.30398437 4.66796875 10.13671875 C4.77753906 10.75160156 4.88710938 11.36648437 5 12 C1.98642026 9.12340116 0.04541243 7.15801695 -0.125 2.8125 C-0.08375 1.884375 -0.0425 0.95625 0 0 Z " fill="#0F8E42" transform="translate(339,196)"/>
<path d="M0 0 C4.19813062 3.74427866 6.07776117 6.8403063 8 12 C7.01 12 6.02 12 5 12 C4.54625 11.071875 4.0925 10.14375 3.625 9.1875 C2.0578367 5.96078611 2.0578367 5.96078611 0 3 C0 2.01 0 1.02 0 0 Z " fill="#161415" transform="translate(252,176)"/>
<path d="M0 0 C0.99 0 1.98 0 3 0 C1.33248852 3.94139078 -1.22710649 6.7892812 -4 10 C-5 7 -5 7 -4.109375 5.17578125 C-3.66078125 4.56089844 -3.2121875 3.94601563 -2.75 3.3125 C-2.31171875 2.68988281 -1.8734375 2.06726563 -1.421875 1.42578125 C-0.95265625 0.95527344 -0.4834375 0.48476562 0 0 Z " fill="#100E0F" transform="translate(391,165)"/>
<path d="M0 0 C3.28788824 3.11016455 5.83735988 6.01618925 8 10 C7.01 10.495 7.01 10.495 6 11 C0.42857143 4.85714286 0.42857143 4.85714286 0 0 Z " fill="#D5F4E3" transform="translate(400,110)"/>
<path d="M0 0 C0.66 0 1.32 0 2 0 C1.3125 3.375 1.3125 3.375 0 7 C-2.625 8.4375 -2.625 8.4375 -5 9 C-4.3566152 7.686298 -3.71021785 6.37407102 -3.0625 5.0625 C-2.70285156 4.33160156 -2.34320313 3.60070312 -1.97265625 2.84765625 C-1 1 -1 1 0 0 Z " fill="#131112" transform="translate(369,201)"/>
<path d="M0 0 C0 0.66 0 1.32 0 2 C-6.4 5.07692308 -6.4 5.07692308 -9.4375 4.6875 C-9.953125 4.460625 -10.46875 4.23375 -11 4 C-4.5 0 -4.5 0 0 0 Z " fill="#161314" transform="translate(151,168)"/>
<path d="M0 0 C0.66 0.33 1.32 0.66 2 1 C-3.445 5.455 -3.445 5.455 -9 10 C-9 9.01 -9 8.02 -9 7 C-7.37064759 5.62131719 -5.70250393 4.28725907 -4 3 C-3.67 2.34 -3.34 1.68 -3 1 C-2.01 0.67 -1.02 0.34 0 0 Z " fill="#A4161C" transform="translate(166,84)"/>
<path d="M0 0 C1.79275866 3.11910856 2.34290718 5.67682428 2.625 9.25 C2.69976562 10.14203125 2.77453125 11.0340625 2.8515625 11.953125 C2.92503906 12.96632813 2.92503906 12.96632813 3 14 C1.51171875 12.85546875 1.51171875 12.85546875 0 11 C-0.29296875 8.30078125 -0.29296875 8.30078125 -0.1875 5.3125 C-0.16042969 4.31863281 -0.13335937 3.32476562 -0.10546875 2.30078125 C-0.07066406 1.54152344 -0.03585938 0.78226563 0 0 Z " fill="#FDEABE" transform="translate(73,250)"/>
<path d="M0 0 C2.10827055 3.16240582 2.33817465 4.50657469 2.625 8.1875 C2.69976562 9.08855469 2.77453125 9.98960937 2.8515625 10.91796875 C2.90054687 11.60503906 2.94953125 12.29210937 3 13 C0.75393573 11.22555028 0.04918998 10.41647515 -0.29296875 7.51953125 C-0.25816406 6.62621094 -0.22335937 5.73289063 -0.1875 4.8125 C-0.16042969 3.91144531 -0.13335937 3.01039063 -0.10546875 2.08203125 C-0.07066406 1.39496094 -0.03585937 0.70789063 0 0 Z " fill="#D0F8E3" transform="translate(437,178)"/>
<path d="M0 0 C0.66 0 1.32 0 2 0 C2 0.66 2 1.32 2 2 C2.66 2 3.32 2 4 2 C4 1.34 4 0.68 4 0 C4.66 0 5.32 0 6 0 C6.66 1.65 7.32 3.3 8 5 C6.68 5.33 5.36 5.66 4 6 C4 5.34 4 4.68 4 4 C3.01 4 2.02 4 1 4 C0.67 2.68 0.34 1.36 0 0 Z " fill="#199149" transform="translate(321,170)"/>
<path d="M0 0 C2.73902249 2.36551942 3.93170092 4.54857221 5 8 C5.125 10.8125 5.125 10.8125 5 13 C2.05633121 8.58449682 0 5.38909875 0 0 Z " fill="#138645" transform="translate(452,145)"/>
<path d="M0 0 C0.99 0.33 1.98 0.66 3 1 C3.33 1.99 3.66 2.98 4 4 C4.66 4.33 5.32 4.66 6 5 C6.73075648 7.3140622 7.40138258 9.64828869 8 12 C4.74451247 8.97704729 2.31022942 5.79537691 0 2 C0 1.34 0 0.68 0 0 Z " fill="#168340" transform="translate(411,122)"/>
<path d="M0 0 C3.37191712 5.05787568 4.23926553 7.77909633 4 14 C1.8553857 11.8553857 1.55435397 10.98260002 0.875 8.125 C0.70742187 7.44695312 0.53984375 6.76890625 0.3671875 6.0703125 C0 4 0 4 0 0 Z " fill="#FEF3D7" transform="translate(101,254)"/>
<path d="M0 0 C0.66 0 1.32 0 2 0 C0.44499019 3.81684226 -2.03595495 6.19195732 -5 9 C-4.42676569 5.13066838 -2.61046448 2.84777943 0 0 Z " fill="#D4F9FE" transform="translate(407,320)"/>
<path d="M0 0 C0.640625 1.8359375 0.640625 1.8359375 1 4 C-1.46026571 6.87030999 -3.85489214 8.90326143 -7 11 C-5.22054913 6.95579349 -2.60470327 3.53921513 0 0 Z " fill="#1CA0CD" transform="translate(416,311)"/>
<path d="M0 0 C2.47859908 2.2008849 3.61210366 4.06372969 4.6875 7.1875 C4.93886719 7.90292969 5.19023438 8.61835938 5.44921875 9.35546875 C5.63097656 9.89816406 5.81273438 10.44085938 6 11 C3 10 3 10 1.3125 7.1875 C0 4 0 4 0 0 Z " fill="#FEEEC9" transform="translate(90,304)"/>
<path d="M0 0 C0.33 0 0.66 0 1 0 C0.67 3.63 0.34 7.26 0 11 C-0.99 11.33 -1.98 11.66 -3 12 C-2.01 8.04 -1.02 4.08 0 0 Z " fill="#C7F5FB" transform="translate(461,273)"/>
<path d="M0 0 C2.33524782 2.25740623 4.18705073 4.2805761 6 7 C5.625 9.1875 5.625 9.1875 5 11 C4.15841464 9.73461631 3.32700252 8.46246221 2.5 7.1875 C1.80390625 6.12595703 1.80390625 6.12595703 1.09375 5.04296875 C0 3 0 3 0 0 Z " fill="#120F11" transform="translate(337,220)"/>
<path d="M0 0 C0.33 0.99 0.66 1.98 1 3 C0.00390625 4.82421875 0.00390625 4.82421875 -1.4375 6.6875 C-1.91058594 7.31011719 -2.38367188 7.93273437 -2.87109375 8.57421875 C-3.24363281 9.04472656 -3.61617188 9.51523438 -4 10 C-4.66 9.67 -5.32 9.34 -6 9 C-4.02 6.03 -2.04 3.06 0 0 Z " fill="#FAF8FA" transform="translate(356,219)"/>
<path d="M0 0 C2.63249349 2.45699392 4.78137264 4.56568654 6 8 C5.67 8.99 5.34 9.98 5 11 C4.15841464 9.73461631 3.32700252 8.46246221 2.5 7.1875 C1.80390625 6.12595703 1.80390625 6.12595703 1.09375 5.04296875 C0 3 0 3 0 0 Z " fill="#121011" transform="translate(330,208)"/>
<path d="M0 0 C0.66 0.33 1.32 0.66 2 1 C-0.64 2.98 -3.28 4.96 -6 7 C-6.66 6.67 -7.32 6.34 -8 6 C-5.54080489 3.3651481 -3.42227589 1.25483449 0 0 Z " fill="#FAE3E5" transform="translate(190,71)"/>
<path d="M0 0 C0 3 0 3 -1 6 C-3.0625 6.6875 -3.0625 6.6875 -5 7 C-5 7.66 -5 8.32 -5 9 C-5.66 8.67 -6.32 8.34 -7 8 C-4.69 5.36 -2.38 2.72 0 0 Z " fill="#22A8D3" transform="translate(404,327)"/>
<path d="M0 0 C3 1 3 1 4.75 3.875 C6 7 6 7 5 10 C4.16121545 8.71186658 3.32913217 7.41936744 2.5 6.125 C2.0359375 5.40570313 1.571875 4.68640625 1.09375 3.9453125 C0 2 0 2 0 0 Z " fill="#171415" transform="translate(270,207)"/>
<path d="M0 0 C0.268125 0.639375 0.53625 1.27875 0.8125 1.9375 C1.88667752 4.33131686 1.88667752 4.33131686 5 5 C5 6.98 5 8.96 5 11 C0 4.63636364 0 4.63636364 0 0 Z " fill="#11853D" transform="translate(426,146)"/>
<path d="M0 0 C-1.33333333 0.66666667 -2.66666667 1.33333333 -4 2 C-5.546875 2.8353125 -5.546875 2.8353125 -7.125 3.6875 C-8.07375 4.120625 -9.0225 4.55375 -10 5 C-10.66 4.67 -11.32 4.34 -12 4 C-7.81413519 0.81076967 -5.29441695 -0.50423019 0 0 Z " fill="#B4121C" transform="translate(203,40)"/>
<path d="M0 0 C2.96865509 2.54456151 4.3619751 5.48994665 6 9 C5.01 9 4.02 9 3 9 C0 3.375 0 3.375 0 0 Z " fill="#100D0E" transform="translate(142,230)"/>
<path d="M0 0 C0.66 0 1.32 0 2 0 C0.125 5.75 0.125 5.75 -1 8 C-1.66 8 -2.32 8 -3 8 C-3.33 8.66 -3.66 9.32 -4 10 C-4 9.01 -4 8.02 -4 7 C-3.34 7 -2.68 7 -2 7 C-1.855625 6.21625 -1.71125 5.4325 -1.5625 4.625 C-1 2 -1 2 0 0 Z " fill="#12A24D" transform="translate(359,180)"/>
<path d="M0 0 C4.94026549 4.71570796 4.94026549 4.71570796 5.125 8.6875 C5.08375 9.450625 5.0425 10.21375 5 11 C0 4.63636364 0 4.63636364 0 0 Z " fill="#D8F6E9" transform="translate(443,123)"/>
<path d="M0 0 C-2.09782787 2.09782787 -3.3799207 2.6509396 -6.125 3.625 C-6.84945312 3.88539062 -7.57390625 4.14578125 -8.3203125 4.4140625 C-9.15175781 4.70410156 -9.15175781 4.70410156 -10 5 C-10 4.01 -10 3.02 -10 2 C-6.49223216 0.39644899 -3.85645121 -0.22036864 0 0 Z " fill="#FBE2E4" transform="translate(195,41)"/>
<path d="M0 0 C0.33 0 0.66 0 1 0 C1 1.98 1 3.96 1 6 C-0.98 6.99 -0.98 6.99 -3 8 C-2.37240135 5.07120629 -1.41377341 2.63904371 0 0 Z " fill="#18A7D5" transform="translate(426,293)"/>
<path d="M0 0 C1 3 1 3 0.22265625 4.82421875 C-0.8515625 6.54947917 -1.92578125 8.27473958 -3 10 C-3.75 8.375 -3.75 8.375 -4 6 C-2.0625 2.75 -2.0625 2.75 0 0 Z " fill="#1B1919" transform="translate(423,167)"/>
<path d="M0 0 C0.66 0.66 1.32 1.32 2 2 C0.35 4.31 -1.3 6.62 -3 9 C-3.33 8.34 -3.66 7.68 -4 7 C-3.22265625 5.2734375 -3.22265625 5.2734375 -2.0625 3.375 C-1.381875 2.26125 -0.70125 1.1475 0 0 Z " fill="#151213" transform="translate(386,226)"/>
<path d="M0 0 C0.66 0 1.32 0 2 0 C5 4.38461538 5 4.38461538 5 7 C2 6 2 6 0 3 C0 2.01 0 1.02 0 0 Z " fill="#D8F7E7" transform="translate(337,200)"/>
<path d="M0 0 C1.98 0.99 1.98 0.99 4 2 C4 2.99 4 3.98 4 5 C4.66 5 5.32 5 6 5 C5.67 6.32 5.34 7.64 5 9 C3.35 6.03 1.7 3.06 0 0 Z " fill="#D2F5E6" transform="translate(329,175)"/>
</svg>
